<?xml version="1.0" encoding="UTF-8" standalone="no"?>
<!-- This is a Stata 17.0 generated SVG file (http://www.stata.com) -->

<svg version="1.1" width="5.500in" height="4.000in" viewBox="0 0 3960 2880" xmlns="http://www.w3.org/2000/svg" xmlns:xlink="http://www.w3.org/1999/xlink">
	<desc>Stata Graph - Graph</desc>
	<rect x="0" y="0" width="3960" height="2880" style="fill:#EAF2F3;stroke:none"/>
	<rect x="0.00" y="0.00" width="3959.88" height="2880.00" style="fill:#EAF2F3"/>
	<rect x="2.88" y="2.88" width="3954.12" height="2874.24" style="fill:none;stroke:#EAF2F3;stroke-width:5.76"/>
	<rect x="390.80" y="275.35" width="3468.22" height="2213.83" style="fill:#FFFFFF"/>
	<rect x="393.68" y="278.23" width="3462.46" height="2208.07" style="fill:none;stroke:#FFFFFF;stroke-width:5.76"/>
	<line x1="390.80" y1="2425.82" x2="3859.02" y2="2425.82" style="stroke:#EAF2F3;stroke-width:8.64"/>
	<line x1="390.80" y1="1904.08" x2="3859.02" y2="1904.08" style="stroke:#EAF2F3;stroke-width:8.64"/>
	<line x1="390.80" y1="1382.33" x2="3859.02" y2="1382.33" style="stroke:#EAF2F3;stroke-width:8.64"/>
	<line x1="390.80" y1="860.46" x2="3859.02" y2="860.46" style="stroke:#EAF2F3;stroke-width:8.64"/>
	<line x1="390.80" y1="338.71" x2="3859.02" y2="338.71" style="stroke:#EAF2F3;stroke-width:8.64"/>
	<path d=" M454.04 484.13 L465.30 490.56 L476.44 497.12 L487.58 503.55 L498.84 509.99 L509.97 516.55 L521.11 522.98 L532.25 529.42 L543.51 535.98 L554.65 542.41 L565.79 548.85 L577.05 555.41 L588.18 561.84 L599.32 568.28 L610.58 574.84 L621.72 581.27 L632.86 587.71 L644.12 594.27 L655.26 600.70 L666.39 607.14 L677.66 613.70 L688.79 620.13 L699.93 626.69 L711.07 633.12 L722.33 639.56 L733.47 646.12 L744.60 652.55 L755.87 658.99 L767.00 665.55 L778.14 671.98 L789.40 678.42 L800.54 684.98 L811.68 691.41 L822.94 697.85 L834.08 704.41 L845.21 710.84 L856.35 717.28 L867.61 723.84 L878.75 730.27 L889.89 736.71 L901.15 743.27 L912.29 749.70 L923.42 756.14 L934.68 762.70 L945.82 769.13 L956.96 775.57 L968.22 782.12 L979.36 788.56 L990.50 794.99 L1001.63 801.55 L1012.89 807.99 L1024.03 814.42 L1035.17 820.98 L1046.43 827.42 L1057.57 833.85 L1068.71 840.41 L1079.97 846.85 L1091.10 853.28 L1102.24 859.84 L1113.50 866.28 L1124.64 872.71 L1135.78 879.27 L1147.04 885.71 L1158.18 892.14 L1169.31 898.70 L1180.45 905.14 L1191.71 911.57 L1202.85 918.13 L1213.99 924.57 L1225.25 931.00 L1236.39 937.56 L1247.52 943.99 L1258.79 950.43 L1269.92 956.99 L1281.06 963.42 L1292.32 969.86 L1303.46 976.42 L1314.60 982.85 L1325.73 989.29 L1337.00 995.85 L1348.13 1002.28 L1359.27 1008.84 L1370.53 1015.28 L1381.67 1021.71 L1392.81 1028.27 L1404.07 1034.71 L1415.21 1041.14 L1426.34 1047.70 L1437.60 1054.14 L1448.74 1060.57 L1459.88 1067.13 L1471.14 1073.56 L1482.28 1080.00 L1493.42 1086.56 L1504.55 1092.99 L1515.81 1099.43 L1526.95 1105.99 L1538.09 1112.42 L1549.35 1118.86 L1560.49 1125.42 L1571.63 1131.85 L1582.89 1138.29 L1594.02 1144.85 L1605.16 1151.28 L1616.42 1157.72 L1627.56 1164.28 L1638.70 1170.71 L1649.84 1177.15 L1661.10 1183.71 L1672.23 1190.14 L1683.37 1196.58 L1694.63 1203.14 L1705.77 1209.57 L1716.91 1216.01 L1728.17 1222.56 L1739.31 1229.00 L1750.44 1235.43 L1761.71 1241.99 L1772.84 1248.43 L1783.98 1254.86 L1795.24 1261.42 L1806.38 1267.86 L1817.52 1274.29 L1828.65 1280.85 L1839.92 1287.29 L1851.05 1293.72 L1862.19 1300.28 L1873.45 1306.72 L1884.59 1313.15 L1895.73 1319.71 L1906.99 1326.15 L1918.13 1332.58 L1929.26 1339.14 L1940.52 1345.58 L1951.66 1352.01 L1962.80 1358.57 L1973.94 1365.01 L1985.20 1371.44 L1996.34 1378.00 L2007.47 1384.43 L2018.73 1390.87 L2029.87 1397.43 L2041.01 1403.86 L2052.27 1410.42 L2063.41 1416.86 L2074.55 1423.29 L2085.81 1429.85 L2096.94 1436.29 L2108.08 1442.72 L2119.22 1449.28 L2130.48 1455.72 L2141.62 1462.15 L2152.76 1468.71 L2164.02 1475.15 L2175.15 1481.58 L2186.29 1488.14 L2197.55 1494.58 L2208.69 1501.01 L2219.83 1507.57 L2231.09 1514.00 L2242.23 1520.44 L2253.36 1527.00 L2264.63 1533.43 L2275.76 1539.87 L2286.90 1546.43 L2298.04 1552.86 L2309.30 1559.30 L2320.44 1565.86 L2331.57 1572.29 L2342.84 1578.73 L2353.97 1585.29 L2365.11 1591.72 L2376.37 1598.16 L2387.51 1604.72 L2398.65 1611.15 L2409.91 1617.59 L2421.05 1624.15 L2432.18 1630.58 L2443.32 1637.02 L2454.58 1643.58 L2465.72 1650.01 L2476.86 1656.45 L2488.12 1663.00 L2499.26 1669.44 L2510.39 1675.87 L2521.65 1682.43 L2532.79 1688.87 L2543.93 1695.30 L2555.19 1701.86 L2566.33 1708.30 L2577.47 1714.73 L2588.73 1721.29 L2599.86 1727.73 L2611.00 1734.16 L2622.14 1740.72 L2633.40 1747.16 L2644.54 1753.59 L2655.68 1760.15 L2666.94 1766.59 L2678.07 1773.02 L2689.21 1779.58 L2700.47 1786.02 L2711.61 1792.57 L2722.75 1799.01 L2734.01 1805.45 L2745.15 1812.00 L2756.28 1818.44 L2767.42 1824.87 L2778.68 1831.43 L2789.82 1837.87 L2800.96 1844.30 L2812.22 1850.86 L2823.36 1857.30 L2834.49 1863.73 L2845.76 1870.29 L2856.89 1876.73 L2868.03 1883.16 L2879.29 1889.72 L2890.43 1896.16 L2901.57 1902.59 L2912.83 1909.15 L2923.97 1915.59 L2935.10 1922.02 L2946.24 1928.58 L2957.50 1935.02 L2968.64 1941.45 L2979.78 1948.01 L2991.04 1954.44 L3002.18 1960.88 L3013.31 1967.44 L3024.57 1973.87 L3035.71 1980.31 L3046.85 1986.87 L3058.11 1993.30 L3069.25 1999.74 L3080.39 2006.30 L3091.52 2012.73 L3102.78 2019.17 L3113.92 2025.73 L3125.06 2032.16 L3136.32 2038.60 L3147.46 2045.16 L3158.60 2051.59 L3169.86 2058.03 L3180.99 2064.59 L3192.13 2071.02 L3203.39 2077.46 L3214.53 2084.02 L3225.67 2090.45 L3236.81 2096.89 L3248.07 2103.44 L3259.20 2109.88 L3270.34 2116.31 L3281.60 2122.87 L3292.74 2129.31 L3303.88 2135.74 L3315.14 2142.30 L3326.28 2148.74 L3337.41 2155.17 L3348.68 2161.73 L3359.81 2168.17 L3370.95 2174.60 L3382.21 2181.16 L3393.35 2187.60 L3404.49 2194.16 L3415.62 2200.59 L3426.89 2207.03 L3438.02 2213.59 L3449.16 2220.02 L3460.42 2226.46 L3471.56 2233.01 L3482.70 2239.45 L3493.96 2245.89 L3505.10 2252.44 L3516.23 2258.88 L3527.49 2265.31 L3538.63 2271.87 L3549.77 2278.31 L3560.91 2284.74 L3572.17 2291.30 L3583.31 2297.74 L3594.44 2304.17 L3605.70 2310.73 L3616.84 2317.17 L3627.98 2323.60 L3639.24 2330.16 L3650.38 2336.60 L3661.52 2343.03 L3672.78 2349.59 L3683.91 2356.03 L3695.05 2362.46 L3706.31 2369.02 L3717.45 2375.46 L3728.59 2381.89 L3739.73 2388.45 L3750.99 2394.88 L3762.12 2401.32 L3773.26 2407.88 L3784.52 2414.31 L3795.66 2420.75" stroke-linejoin="round" style="fill:none;stroke:#1A476F;stroke-width:8.64"/>
	<line x1="390.80" y1="2489.19" x2="390.80" y2="275.35" style="stroke:#000000;stroke-width:5.76"/>
	<line x1="390.80" y1="2425.82" x2="350.83" y2="2425.82" style="stroke:#000000;stroke-width:5.76"/>
	<text x="300.72" y="2425.82" style="font-family:'Helvetica';font-size:99.99px;fill:#000000" transform="rotate(-90 300.72,2425.82)" text-anchor="middle">650</text>
	<line x1="390.80" y1="1904.08" x2="350.83" y2="1904.08" style="stroke:#000000;stroke-width:5.76"/>
	<text x="300.72" y="1904.08" style="font-family:'Helvetica';font-size:99.99px;fill:#000000" transform="rotate(-90 300.72,1904.08)" text-anchor="middle">660</text>
	<line x1="390.80" y1="1382.33" x2="350.83" y2="1382.33" style="stroke:#000000;stroke-width:5.76"/>
	<text x="300.72" y="1382.33" style="font-family:'Helvetica';font-size:99.99px;fill:#000000" transform="rotate(-90 300.72,1382.33)" text-anchor="middle">670</text>
	<line x1="390.80" y1="860.46" x2="350.83" y2="860.46" style="stroke:#000000;stroke-width:5.76"/>
	<text x="300.72" y="860.46" style="font-family:'Helvetica';font-size:99.99px;fill:#000000" transform="rotate(-90 300.72,860.46)" text-anchor="middle">680</text>
	<line x1="390.80" y1="338.71" x2="350.83" y2="338.71" style="stroke:#000000;stroke-width:5.76"/>
	<text x="300.72" y="338.71" style="font-family:'Helvetica';font-size:99.99px;fill:#000000" transform="rotate(-90 300.72,338.71)" text-anchor="middle">690</text>
	<text x="190.71" y="1382.33" style="font-family:'Helvetica';font-size:99.99px;fill:#000000" transform="rotate(-90 190.71,1382.33)" text-anchor="middle">y</text>
	<line x1="390.80" y1="2489.19" x2="3859.02" y2="2489.19" style="stroke:#000000;stroke-width:5.76"/>
	<line x1="454.16" y1="2489.19" x2="454.16" y2="2529.16" style="stroke:#000000;stroke-width:5.76"/>
	<text x="454.16" y="2619.14" style="font-family:'Helvetica';font-size:99.99px;fill:#000000" text-anchor="middle">5</text>
	<line x1="1289.47" y1="2489.19" x2="1289.47" y2="2529.16" style="stroke:#000000;stroke-width:5.76"/>
	<text x="1289.47" y="2619.14" style="font-family:'Helvetica';font-size:99.99px;fill:#000000" text-anchor="middle">10</text>
	<line x1="2124.91" y1="2489.19" x2="2124.91" y2="2529.16" style="stroke:#000000;stroke-width:5.76"/>
	<text x="2124.91" y="2619.14" style="font-family:'Helvetica';font-size:99.99px;fill:#000000" text-anchor="middle">15</text>
	<line x1="2960.35" y1="2489.19" x2="2960.35" y2="2529.16" style="stroke:#000000;stroke-width:5.76"/>
	<text x="2960.35" y="2619.14" style="font-family:'Helvetica';font-size:99.99px;fill:#000000" text-anchor="middle">20</text>
	<line x1="3795.66" y1="2489.19" x2="3795.66" y2="2529.16" style="stroke:#000000;stroke-width:5.76"/>
	<text x="3795.66" y="2619.14" style="font-family:'Helvetica';font-size:99.99px;fill:#000000" text-anchor="middle">25</text>
	<text x="2124.91" y="2729.16" style="font-family:'Helvetica';font-size:99.99px;fill:#000000" text-anchor="middle">x</text>
	<text x="2124.91" y="215.98" style="font-family:'Helvetica';font-size:139.96px;fill:#1E2D53" text-anchor="middle">Predicted Test Scores and Student Teacher Ratio</text>
</svg>
