<?xml version="1.0" encoding="UTF-8" standalone="no"?>
<!-- This is a Stata 17.0 generated SVG file (http://www.stata.com) -->

<svg version="1.1" width="5.500in" height="4.000in" viewBox="0 0 3960 2880" xmlns="http://www.w3.org/2000/svg" xmlns:xlink="http://www.w3.org/1999/xlink">
	<desc>Stata Graph - Graph</desc>
	<rect x="0" y="0" width="3960" height="2880" style="fill:#F0F0F0;stroke:none"/>
	<rect x="0.00" y="0.00" width="3959.88" height="2880.00" style="fill:#F0F0F0"/>
	<rect x="2.88" y="2.88" width="3954.12" height="2874.24" style="fill:none;stroke:#F0F0F0;stroke-width:5.76"/>
	<rect x="390.80" y="275.35" width="3468.22" height="2213.83" style="fill:#FFFFFF"/>
	<rect x="393.68" y="278.23" width="3462.46" height="2208.07" style="fill:none;stroke:#FFFFFF;stroke-width:5.76"/>
	<line x1="390.80" y1="2425.82" x2="3859.02" y2="2425.82" style="stroke:#E8E8E8;stroke-width:8.64"/>
	<line x1="390.80" y1="1909.89" x2="3859.02" y2="1909.89" style="stroke:#E8E8E8;stroke-width:8.64"/>
	<line x1="390.80" y1="1393.84" x2="3859.02" y2="1393.84" style="stroke:#E8E8E8;stroke-width:8.64"/>
	<line x1="390.80" y1="877.79" x2="3859.02" y2="877.79" style="stroke:#E8E8E8;stroke-width:8.64"/>
	<line x1="390.80" y1="361.86" x2="3859.02" y2="361.86" style="stroke:#E8E8E8;stroke-width:8.64"/>
	<rect x="454.16" y="2423.22" width="75.36" height="2.60" style="fill:#808080"/>
	<rect x="458.48" y="2421.50" width="66.72" height="6.04" style="fill:none;stroke:#000000;stroke-width:8.64"/>
	<rect x="604.89" y="2420.63" width="75.36" height="5.20" style="fill:#808080"/>
	<rect x="609.21" y="2421.50" width="66.72" height="3.44" style="fill:none;stroke:#000000;stroke-width:8.64"/>
	<rect x="680.25" y="2407.76" width="75.24" height="18.07" style="fill:#808080"/>
	<rect x="684.57" y="2412.08" width="66.60" height="9.43" style="fill:none;stroke:#000000;stroke-width:8.64"/>
	<rect x="755.49" y="2400.08" width="75.36" height="25.74" style="fill:#808080"/>
	<rect x="759.81" y="2404.40" width="66.72" height="17.10" style="fill:none;stroke:#000000;stroke-width:8.64"/>
	<rect x="830.86" y="2384.61" width="75.36" height="41.21" style="fill:#808080"/>
	<rect x="835.18" y="2388.93" width="66.72" height="32.57" style="fill:none;stroke:#000000;stroke-width:8.64"/>
	<rect x="906.22" y="2361.35" width="75.36" height="64.48" style="fill:#808080"/>
	<rect x="910.54" y="2365.67" width="66.72" height="55.84" style="fill:none;stroke:#000000;stroke-width:8.64"/>
	<rect x="981.59" y="2302.07" width="75.36" height="123.75" style="fill:#808080"/>
	<rect x="985.90" y="2306.39" width="66.72" height="115.11" style="fill:none;stroke:#000000;stroke-width:8.64"/>
	<rect x="1056.95" y="2240.07" width="75.36" height="185.75" style="fill:#808080"/>
	<rect x="1061.27" y="2244.39" width="66.72" height="177.11" style="fill:none;stroke:#000000;stroke-width:8.64"/>
	<rect x="1132.31" y="2139.46" width="75.36" height="286.37" style="fill:#808080"/>
	<rect x="1136.63" y="2143.78" width="66.72" height="277.73" style="fill:none;stroke:#000000;stroke-width:8.64"/>
	<rect x="1207.68" y="1995.04" width="75.36" height="430.79" style="fill:#808080"/>
	<rect x="1212.00" y="1999.36" width="66.72" height="422.15" style="fill:none;stroke:#000000;stroke-width:8.64"/>
	<rect x="1283.04" y="1868.56" width="75.36" height="557.26" style="fill:#808080"/>
	<rect x="1287.36" y="1872.88" width="66.72" height="548.62" style="fill:none;stroke:#000000;stroke-width:8.64"/>
	<rect x="1358.40" y="1608.06" width="75.24" height="817.77" style="fill:#808080"/>
	<rect x="1362.72" y="1612.38" width="66.60" height="809.13" style="fill:none;stroke:#000000;stroke-width:8.64"/>
	<rect x="1433.64" y="1365.50" width="75.36" height="1060.32" style="fill:#808080"/>
	<rect x="1437.96" y="1369.82" width="66.72" height="1051.68" style="fill:none;stroke:#000000;stroke-width:8.64"/>
	<rect x="1509.01" y="1071.46" width="75.36" height="1354.36" style="fill:#808080"/>
	<rect x="1513.33" y="1075.78" width="66.72" height="1345.72" style="fill:none;stroke:#000000;stroke-width:8.64"/>
	<rect x="1584.37" y="857.24" width="75.36" height="1568.58" style="fill:#808080"/>
	<rect x="1588.69" y="861.56" width="66.72" height="1559.94" style="fill:none;stroke:#000000;stroke-width:8.64"/>
	<rect x="1659.74" y="622.48" width="75.36" height="1803.34" style="fill:#808080"/>
	<rect x="1664.05" y="626.80" width="66.72" height="1794.70" style="fill:none;stroke:#000000;stroke-width:8.64"/>
	<rect x="1735.10" y="354.18" width="75.36" height="2071.64" style="fill:#808080"/>
	<rect x="1739.42" y="358.50" width="66.72" height="2063.00" style="fill:none;stroke:#000000;stroke-width:8.64"/>
	<rect x="1810.46" y="410.99" width="75.36" height="2014.84" style="fill:#808080"/>
	<rect x="1814.78" y="415.31" width="66.72" height="2006.20" style="fill:none;stroke:#000000;stroke-width:8.64"/>
	<rect x="1885.83" y="338.71" width="75.36" height="2087.11" style="fill:#808080"/>
	<rect x="1890.15" y="343.03" width="66.72" height="2078.47" style="fill:none;stroke:#000000;stroke-width:8.64"/>
	<rect x="1961.19" y="521.87" width="75.36" height="1903.95" style="fill:#808080"/>
	<rect x="1965.51" y="526.19" width="66.72" height="1895.31" style="fill:none;stroke:#000000;stroke-width:8.64"/>
	<rect x="2036.55" y="493.53" width="75.36" height="1932.29" style="fill:#808080"/>
	<rect x="2040.87" y="497.85" width="66.72" height="1923.65" style="fill:none;stroke:#000000;stroke-width:8.64"/>
	<rect x="2111.92" y="720.50" width="75.24" height="1705.33" style="fill:#808080"/>
	<rect x="2116.24" y="724.81" width="66.60" height="1696.69" style="fill:none;stroke:#000000;stroke-width:8.64"/>
	<rect x="2187.16" y="1014.66" width="75.36" height="1411.17" style="fill:#808080"/>
	<rect x="2191.48" y="1018.98" width="66.72" height="1402.53" style="fill:none;stroke:#000000;stroke-width:8.64"/>
	<rect x="2262.52" y="1257.22" width="75.36" height="1168.61" style="fill:#808080"/>
	<rect x="2266.84" y="1261.54" width="66.72" height="1159.97" style="fill:none;stroke:#000000;stroke-width:8.64"/>
	<rect x="2337.89" y="1458.44" width="75.36" height="967.38" style="fill:#808080"/>
	<rect x="2342.20" y="1462.76" width="66.72" height="958.74" style="fill:none;stroke:#000000;stroke-width:8.64"/>
	<rect x="2413.25" y="1646.67" width="75.36" height="779.15" style="fill:#808080"/>
	<rect x="2417.57" y="1650.99" width="66.72" height="770.51" style="fill:none;stroke:#000000;stroke-width:8.64"/>
	<rect x="2488.61" y="1935.63" width="75.36" height="490.19" style="fill:#808080"/>
	<rect x="2492.93" y="1939.95" width="66.72" height="481.55" style="fill:none;stroke:#000000;stroke-width:8.64"/>
	<rect x="2563.98" y="2054.31" width="75.36" height="371.51" style="fill:#808080"/>
	<rect x="2568.30" y="2058.63" width="66.72" height="362.87" style="fill:none;stroke:#000000;stroke-width:8.64"/>
	<rect x="2639.34" y="2229.80" width="75.36" height="196.03" style="fill:#808080"/>
	<rect x="2643.66" y="2234.12" width="66.72" height="187.39" style="fill:none;stroke:#000000;stroke-width:8.64"/>
	<rect x="2714.70" y="2242.67" width="75.36" height="183.16" style="fill:#808080"/>
	<rect x="2719.02" y="2246.99" width="66.72" height="174.52" style="fill:none;stroke:#000000;stroke-width:8.64"/>
	<rect x="2790.07" y="2353.55" width="75.36" height="72.27" style="fill:#808080"/>
	<rect x="2794.39" y="2357.87" width="66.72" height="63.63" style="fill:none;stroke:#000000;stroke-width:8.64"/>
	<rect x="2865.43" y="2384.61" width="75.24" height="41.21" style="fill:#808080"/>
	<rect x="2869.75" y="2388.93" width="66.60" height="32.57" style="fill:none;stroke:#000000;stroke-width:8.64"/>
	<rect x="2940.67" y="2397.48" width="75.36" height="28.34" style="fill:#808080"/>
	<rect x="2944.99" y="2401.80" width="66.72" height="19.70" style="fill:none;stroke:#000000;stroke-width:8.64"/>
	<rect x="3016.04" y="2410.35" width="75.36" height="15.47" style="fill:#808080"/>
	<rect x="3020.35" y="2414.67" width="66.72" height="6.83" style="fill:none;stroke:#000000;stroke-width:8.64"/>
	<rect x="3091.40" y="2423.22" width="75.36" height="2.60" style="fill:#808080"/>
	<rect x="3095.72" y="2421.50" width="66.72" height="6.04" style="fill:none;stroke:#000000;stroke-width:8.64"/>
	<rect x="3166.76" y="2423.22" width="75.36" height="2.60" style="fill:#808080"/>
	<rect x="3171.08" y="2421.50" width="66.72" height="6.04" style="fill:none;stroke:#000000;stroke-width:8.64"/>
	<rect x="3317.49" y="2420.63" width="75.36" height="5.20" style="fill:#808080"/>
	<rect x="3321.81" y="2421.50" width="66.72" height="3.44" style="fill:none;stroke:#000000;stroke-width:8.64"/>
	<line x1="390.80" y1="2489.19" x2="390.80" y2="275.35" style="stroke:#000000;stroke-width:5.76"/>
	<line x1="390.80" y1="2425.82" x2="350.83" y2="2425.82" style="stroke:#000000;stroke-width:5.76"/>
	<text x="300.72" y="2425.82" style="font-family:'Helvetica';font-size:99.99px;fill:#000000" transform="rotate(-90 300.72,2425.82)" text-anchor="middle">0</text>
	<line x1="390.80" y1="1909.89" x2="350.83" y2="1909.89" style="stroke:#000000;stroke-width:5.76"/>
	<text x="300.72" y="1909.89" style="font-family:'Helvetica';font-size:99.99px;fill:#000000" transform="rotate(-90 300.72,1909.89)" text-anchor="middle">.2</text>
	<line x1="390.80" y1="1393.84" x2="350.83" y2="1393.84" style="stroke:#000000;stroke-width:5.76"/>
	<text x="300.72" y="1393.84" style="font-family:'Helvetica';font-size:99.99px;fill:#000000" transform="rotate(-90 300.72,1393.84)" text-anchor="middle">.4</text>
	<line x1="390.80" y1="877.79" x2="350.83" y2="877.79" style="stroke:#000000;stroke-width:5.76"/>
	<text x="300.72" y="877.79" style="font-family:'Helvetica';font-size:99.99px;fill:#000000" transform="rotate(-90 300.72,877.79)" text-anchor="middle">.6</text>
	<line x1="390.80" y1="361.86" x2="350.83" y2="361.86" style="stroke:#000000;stroke-width:5.76"/>
	<text x="300.72" y="361.86" style="font-family:'Helvetica';font-size:99.99px;fill:#000000" transform="rotate(-90 300.72,361.86)" text-anchor="middle">.8</text>
	<text x="190.71" y="1382.33" style="font-family:'Helvetica';font-size:99.99px;fill:#000000" transform="rotate(-90 190.71,1382.33)" text-anchor="middle">Density</text>
	<line x1="390.80" y1="2489.19" x2="3859.02" y2="2489.19" style="stroke:#000000;stroke-width:5.76"/>
	<line x1="782.10" y1="2489.19" x2="782.10" y2="2529.16" style="stroke:#000000;stroke-width:5.76"/>
	<text x="782.10" y="2619.14" style="font-family:'Helvetica';font-size:99.99px;fill:#000000" text-anchor="middle">-4</text>
	<line x1="1535.49" y1="2489.19" x2="1535.49" y2="2529.16" style="stroke:#000000;stroke-width:5.76"/>
	<text x="1535.49" y="2619.14" style="font-family:'Helvetica';font-size:99.99px;fill:#000000" text-anchor="middle">-3</text>
	<line x1="2288.88" y1="2489.19" x2="2288.88" y2="2529.16" style="stroke:#000000;stroke-width:5.76"/>
	<text x="2288.88" y="2619.14" style="font-family:'Helvetica';font-size:99.99px;fill:#000000" text-anchor="middle">-2</text>
	<line x1="3042.27" y1="2489.19" x2="3042.27" y2="2529.16" style="stroke:#000000;stroke-width:5.76"/>
	<text x="3042.27" y="2619.14" style="font-family:'Helvetica';font-size:99.99px;fill:#000000" text-anchor="middle">-1</text>
	<line x1="3795.66" y1="2489.19" x2="3795.66" y2="2529.16" style="stroke:#000000;stroke-width:5.76"/>
	<text x="3795.66" y="2619.14" style="font-family:'Helvetica';font-size:99.99px;fill:#000000" text-anchor="middle">0</text>
	<text x="2124.91" y="2729.16" style="font-family:'Helvetica';font-size:99.99px;fill:#000000" text-anchor="middle">beta1</text>
	<text x="2124.91" y="215.98" style="font-family:'Helvetica';font-size:139.96px;fill:#000000" text-anchor="middle">Sampling Distribution of Beta1</text>
</svg>
