<?xml version="1.0" encoding="UTF-8" standalone="no"?>
<!-- This is a Stata 17.0 generated SVG file (http://www.stata.com) -->

<svg version="1.1" width="5.500in" height="4.000in" viewBox="0 0 3960 2880" xmlns="http://www.w3.org/2000/svg" xmlns:xlink="http://www.w3.org/1999/xlink">
	<desc>Stata Graph - Graph</desc>
	<rect x="0" y="0" width="3960" height="2880" style="fill:#FFFFFF;stroke:none"/>
	<rect x="0.00" y="0.00" width="3959.88" height="2880.00" style="fill:#FFFFFF"/>
	<rect x="2.88" y="2.88" width="3954.12" height="2874.24" style="fill:none;stroke:#FFFFFF;stroke-width:5.76"/>
	<rect x="293.69" y="278.23" width="3562.45" height="1812.56" style="fill:none;stroke:#000000;stroke-width:5.76"/>
	<path d=" M954.61 1979.81 L962.28 1976.60 L969.95 1973.13 L977.75 1969.67 L985.42 1966.33 L993.09 1962.49 L1000.77 1958.40 L1008.44 1954.57 L1016.11 1950.73 L1023.78 1947.14 L1031.46 1943.93 L1039.13 1940.96 L1046.93 1937.74 L1054.60 1934.64 L1062.27 1932.05 L1069.94 1928.58 L1077.62 1925.12 L1085.29 1921.28 L1092.96 1917.69 L1100.63 1913.36 L1108.31 1909.03 L1115.98 1904.94 L1123.77 1900.86 L1131.45 1897.27 L1139.12 1894.18 L1146.79 1890.71 L1154.46 1886.88 L1162.14 1882.79 L1169.81 1878.83 L1177.48 1875.24 L1185.15 1872.02 L1192.83 1868.31 L1200.62 1864.72 L1208.30 1861.38 L1215.97 1858.16 L1223.64 1854.82 L1231.31 1849.38 L1238.98 1843.19 L1246.66 1837.74 L1254.33 1831.06 L1262.00 1822.77 L1269.80 1813.86 L1277.47 1804.83 L1285.14 1796.16 L1292.82 1787.87 L1300.49 1779.21 L1308.16 1769.68 L1315.83 1760.28 L1323.51 1749.26 L1331.18 1738.12 L1338.85 1726.49 L1346.65 1714.86 L1354.32 1702.98 L1361.99 1690.85 L1369.67 1677.24 L1377.34 1663.38 L1385.01 1649.76 L1392.68 1636.89 L1400.36 1623.53 L1408.03 1609.79 L1415.70 1595.56 L1423.50 1580.58 L1431.17 1565.36 L1438.84 1550.76 L1446.51 1536.53 L1454.19 1521.06 L1461.86 1505.71 L1469.53 1491.23 L1477.20 1477.50 L1484.88 1463.39 L1492.55 1449.16 L1500.35 1435.67 L1508.02 1421.56 L1515.69 1406.96 L1523.36 1392.48 L1531.04 1378.12 L1538.71 1364.76 L1546.38 1351.52 L1554.05 1338.15 L1561.73 1324.91 L1569.52 1310.68 L1577.19 1296.94 L1584.87 1283.82 L1592.54 1271.82 L1600.21 1258.45 L1607.88 1246.20 L1615.56 1233.33 L1623.23 1219.72 L1630.90 1207.22 L1638.57 1194.35 L1646.37 1180.36 L1654.04 1166.88 L1661.72 1153.88 L1669.39 1140.27 L1677.06 1127.27 L1684.73 1114.03 L1692.41 1101.16 L1700.08 1087.55 L1707.75 1073.69 L1715.42 1060.08 L1723.22 1045.97 L1730.89 1032.35 L1738.56 1018.74 L1746.24 1004.88 L1753.91 990.53 L1761.58 975.55 L1769.25 960.08 L1776.93 944.37 L1784.60 928.03 L1792.40 910.95 L1800.07 895.61 L1807.74 880.51 L1815.41 864.67 L1823.09 848.58 L1830.76 832.12 L1838.43 815.04 L1846.10 799.20 L1853.78 784.48 L1861.45 769.01 L1869.24 753.04 L1876.92 736.95 L1884.59 722.48 L1892.26 708.61 L1899.93 695.87 L1907.61 685.47 L1915.28 675.32 L1922.95 666.17 L1930.62 658.37 L1938.30 652.55 L1946.09 648.97 L1953.77 646.99 L1961.44 645.62 L1969.11 645.01 L1976.78 642.28 L1984.46 639.93 L1992.13 638.45 L1999.80 638.32 L2007.47 638.45 L2015.15 639.56 L2022.94 640.92 L2030.61 640.80 L2038.29 640.80 L2045.96 641.17 L2053.63 641.79 L2061.30 642.53 L2068.98 642.65 L2076.65 643.52 L2084.32 645.38 L2092.12 650.20 L2099.79 654.41 L2107.46 657.38 L2115.14 659.61 L2122.81 663.69 L2130.48 668.64 L2138.15 673.96 L2145.82 681.39 L2153.50 689.68 L2161.17 699.21 L2168.97 709.73 L2176.64 720.74 L2184.31 732.00 L2191.98 745.49 L2199.66 759.23 L2207.33 773.83 L2215.00 790.42 L2222.67 804.40 L2230.35 816.90 L2238.02 829.65 L2245.82 841.90 L2253.49 854.27 L2261.16 868.01 L2268.83 881.75 L2276.51 895.61 L2284.18 907.98 L2291.85 919.12 L2299.52 929.89 L2307.20 940.53 L2314.99 952.16 L2322.66 963.30 L2330.34 973.57 L2338.01 984.34 L2345.68 997.46 L2353.35 1011.07 L2361.03 1026.41 L2368.70 1042.50 L2376.37 1060.08 L2384.04 1076.04 L2391.84 1090.77 L2399.51 1106.24 L2407.19 1122.45 L2414.86 1139.28 L2422.53 1157.47 L2430.20 1173.43 L2437.88 1189.77 L2445.55 1205.36 L2453.22 1220.34 L2460.89 1234.44 L2468.69 1248.06 L2476.36 1259.32 L2484.03 1269.22 L2491.71 1278.13 L2499.38 1288.53 L2507.05 1299.17 L2514.72 1307.83 L2522.40 1315.38 L2530.07 1322.43 L2537.86 1330.85 L2545.54 1338.15 L2553.21 1344.83 L2560.88 1351.39 L2568.55 1357.83 L2576.23 1365.87 L2583.90 1374.41 L2591.57 1381.96 L2599.25 1391.36 L2606.92 1402.87 L2614.71 1415.50 L2622.39 1429.60 L2630.06 1443.47 L2637.73 1456.46 L2645.40 1469.21 L2653.08 1482.08 L2660.75 1494.33 L2668.42 1506.95 L2676.09 1518.95 L2683.77 1531.83 L2691.56 1543.95 L2699.24 1554.72 L2706.91 1565.36 L2714.58 1575.76 L2722.25 1586.28 L2729.93 1596.55 L2737.60 1605.09 L2745.27 1612.88 L2752.94 1620.43 L2760.62 1628.48 L2768.41 1636.27 L2776.08 1644.69 L2783.76 1653.60 L2791.43 1663.00 L2799.10 1672.66 L2806.77 1681.94 L2814.45 1691.84 L2822.12 1702.48 L2829.79 1713.99 L2837.59 1724.76 L2845.26 1735.03 L2852.93 1745.42 L2860.61 1755.70 L2868.28 1765.97 L2875.95 1776.49 L2883.62 1785.52 L2891.30 1793.81 L2898.97 1802.10 L2906.64 1810.40 L2914.44 1819.18 L2922.11 1828.22 L2929.78 1837.13 L2937.45 1845.17 L2945.13 1853.09 L2952.80 1861.26 L2960.47 1868.44 L2968.14 1875.24 L2975.82 1881.06 L2983.49 1887.25 L2991.29 1893.43 L2998.96 1898.38 L3006.63 1903.46 L3014.30 1908.66 L3021.98 1914.22 L3029.65 1919.67 L3037.32 1925.36 L3044.99 1931.18 L3052.67 1937.00 L3060.46 1942.56 L3068.13 1947.89 L3075.81 1952.84 L3083.48 1957.29 L3091.15 1961.62 L3098.82 1965.58 L3106.50 1969.05 L3114.17 1972.27 L3121.84 1975.36 L3129.51 1978.82 L3137.31 1982.17 L3144.98 1985.01 L3152.66 1987.61 L3160.33 1989.47 L3168.00 1991.08 L3175.67 1992.93 L3183.35 1994.91 L3191.02 1997.14 L3198.69 1999.24 L3206.36 2001.35 L3214.16 2003.58 L3221.83 2005.56 L3229.50 2007.29 L3237.18 2009.02 L3244.85 2010.51 L3252.52 2012.11" stroke-linejoin="round" style="fill:none;stroke:#006000;stroke-width:8.64"/>
	<path d=" M1045.32 2003.70 L1051.88 2002.96 L1058.43 2002.09 L1065.12 2000.48 L1071.68 1998.62 L1078.23 1996.89 L1084.92 1995.28 L1091.47 1993.67 L1098.03 1991.82 L1104.59 1990.33 L1111.28 1988.60 L1117.83 1986.87 L1124.39 1984.76 L1131.08 1983.03 L1137.63 1981.42 L1144.19 1979.81 L1150.75 1977.59 L1157.43 1975.73 L1163.99 1973.26 L1170.55 1970.90 L1177.23 1968.18 L1183.79 1964.47 L1190.35 1960.63 L1196.91 1956.30 L1203.59 1951.60 L1210.15 1947.14 L1216.71 1942.94 L1223.39 1938.48 L1229.95 1934.40 L1236.51 1929.82 L1243.07 1925.24 L1249.75 1921.16 L1256.31 1917.07 L1262.87 1912.62 L1269.55 1907.91 L1276.11 1903.46 L1282.67 1898.76 L1289.23 1894.55 L1295.91 1890.46 L1302.47 1885.51 L1309.03 1879.45 L1315.71 1872.64 L1322.27 1865.71 L1328.83 1859.03 L1335.39 1851.73 L1342.07 1844.55 L1348.63 1836.63 L1355.19 1828.34 L1361.87 1820.17 L1368.43 1812.62 L1374.99 1804.08 L1381.55 1794.43 L1388.23 1784.78 L1394.79 1775.13 L1401.35 1765.72 L1408.03 1755.57 L1414.59 1743.57 L1421.15 1731.44 L1427.70 1720.18 L1434.39 1709.91 L1440.95 1698.52 L1447.50 1687.14 L1454.19 1676.62 L1460.75 1665.97 L1467.30 1654.84 L1473.86 1641.84 L1480.55 1627.98 L1487.10 1613.38 L1493.66 1597.54 L1500.35 1580.96 L1506.90 1564.74 L1513.46 1549.65 L1520.02 1534.55 L1526.70 1518.21 L1533.26 1501.75 L1539.82 1484.55 L1546.50 1467.35 L1553.06 1450.77 L1559.62 1433.81 L1566.18 1416.61 L1572.86 1398.91 L1579.42 1380.47 L1585.98 1361.17 L1592.66 1342.23 L1599.22 1324.54 L1605.78 1307.71 L1612.34 1289.89 L1619.02 1270.21 L1625.58 1250.66 L1632.14 1231.47 L1638.82 1213.04 L1645.38 1193.73 L1651.94 1174.55 L1658.50 1155.49 L1665.18 1136.80 L1671.74 1118.73 L1678.30 1100.17 L1684.98 1082.85 L1691.54 1064.65 L1698.10 1047.33 L1704.66 1030.62 L1711.34 1014.53 L1717.90 998.57 L1724.46 981.12 L1731.14 963.30 L1737.70 945.85 L1744.26 928.15 L1750.82 910.70 L1757.50 890.78 L1764.06 870.73 L1770.62 851.30 L1777.30 833.85 L1783.86 817.39 L1790.42 801.43 L1796.97 787.69 L1803.66 772.47 L1810.22 756.88 L1816.77 738.44 L1823.46 719.13 L1830.02 700.69 L1836.57 680.52 L1843.13 660.60 L1849.82 640.06 L1856.37 620.01 L1862.93 600.21 L1869.49 581.27 L1876.17 562.83 L1882.73 545.01 L1889.29 528.92 L1895.97 513.21 L1902.53 498.11 L1909.09 482.02 L1915.65 465.93 L1922.33 450.46 L1928.89 436.23 L1935.45 422.62 L1942.13 410.24 L1948.69 399.35 L1955.25 391.80 L1961.81 384.38 L1968.49 378.44 L1975.05 374.36 L1981.61 371.01 L1988.29 367.30 L1994.85 362.48 L2001.41 358.39 L2007.97 354.55 L2014.65 352.70 L2021.21 351.21 L2027.77 350.22 L2034.45 350.10 L2041.01 351.71 L2047.57 354.18 L2054.13 359.01 L2060.81 363.47 L2067.37 368.42 L2073.93 372.50 L2080.61 376.71 L2087.17 379.06 L2093.73 383.14 L2100.29 385.74 L2106.97 389.33 L2113.53 395.27 L2120.09 402.57 L2126.77 412.35 L2133.33 422.50 L2139.89 434.87 L2146.44 447.62 L2153.13 461.35 L2159.69 473.73 L2166.24 485.98 L2172.93 500.71 L2179.49 517.17 L2186.04 534.99 L2192.60 554.05 L2199.29 571.37 L2205.84 587.21 L2212.40 603.92 L2219.09 620.38 L2225.64 635.97 L2232.20 652.93 L2238.76 669.01 L2245.44 683.86 L2252.00 698.10 L2258.56 713.32 L2265.24 727.05 L2271.80 740.67 L2278.36 753.04 L2284.92 765.17 L2291.60 777.67 L2298.16 791.65 L2304.72 808.24 L2311.40 826.18 L2317.96 844.25 L2324.52 863.43 L2331.08 881.75 L2337.76 898.33 L2344.32 914.54 L2350.88 931.00 L2357.56 947.71 L2364.12 965.28 L2370.68 982.85 L2377.24 999.44 L2383.92 1017.50 L2390.48 1034.95 L2397.04 1052.77 L2403.72 1069.36 L2410.28 1084.21 L2416.84 1096.34 L2423.40 1107.47 L2430.08 1116.63 L2436.64 1125.29 L2443.20 1133.96 L2449.88 1142.12 L2456.44 1151.90 L2463.00 1162.30 L2469.55 1172.32 L2476.24 1181.48 L2482.80 1189.27 L2489.36 1197.69 L2496.04 1207.71 L2502.60 1219.47 L2509.16 1231.72 L2515.71 1244.84 L2522.40 1259.32 L2528.96 1275.78 L2535.51 1292.86 L2542.20 1310.18 L2548.76 1327.38 L2555.31 1345.20 L2561.87 1361.79 L2568.55 1378.74 L2575.11 1395.70 L2581.67 1412.77 L2588.36 1429.11 L2594.91 1445.69 L2601.47 1463.51 L2608.03 1481.33 L2614.71 1498.41 L2621.27 1514.00 L2627.83 1528.61 L2634.51 1543.33 L2641.07 1557.69 L2647.63 1572.17 L2654.19 1586.40 L2660.87 1599.15 L2667.43 1612.02 L2673.99 1624.89 L2680.67 1637.39 L2687.23 1649.52 L2693.79 1662.01 L2700.35 1674.27 L2707.03 1687.14 L2713.59 1699.76 L2720.15 1712.38 L2726.83 1725.38 L2733.39 1738.87 L2739.95 1752.11 L2746.51 1763.74 L2753.19 1775.13 L2759.75 1783.91 L2766.31 1792.45 L2772.99 1800.74 L2779.55 1809.28 L2786.11 1818.07 L2792.67 1825.99 L2799.35 1833.91 L2805.91 1841.33 L2812.47 1847.77 L2819.15 1853.59 L2825.71 1858.41 L2832.27 1862.62 L2838.83 1867.07 L2845.51 1871.90 L2852.07 1877.10 L2858.63 1882.92 L2865.31 1888.48 L2871.87 1894.05 L2878.43 1899.25 L2884.98 1904.57 L2891.67 1909.77 L2898.23 1915.21 L2904.78 1919.92 L2911.47 1924.13 L2918.03 1928.83 L2924.58 1933.28 L2931.14 1937.86 L2937.83 1942.32 L2944.38 1946.77 L2950.94 1951.10 L2957.63 1955.93 L2964.18 1960.76 L2970.74 1965.71 L2977.30 1970.16 L2983.98 1974.00 L2990.54 1977.46 L2997.10 1980.80 L3003.78 1983.40 L3010.34 1986.13 L3016.90 1989.10" stroke-linejoin="round" style="fill:none;stroke:#FF4500;stroke-width:8.64"/>
	<path d=" M354.05 2030.43 L365.56 2030.43 L377.07 2030.43 L388.58 2030.43 L400.08 2030.43 L411.59 2030.43 L423.10 2030.43 L434.61 2030.31 L446.12 2030.31 L457.63 2030.31 L469.14 2030.31 L480.65 2030.31 L492.15 2030.31 L503.66 2030.31 L515.17 2030.31 L526.68 2030.31 L538.19 2030.31 L549.70 2030.31 L561.21 2030.31 L572.72 2030.31 L584.35 2030.18 L595.86 2030.18 L607.37 2030.18 L618.87 2030.18 L630.38 2030.06 L641.89 2030.06 L653.40 2030.06 L664.91 2029.93 L676.42 2029.93 L687.93 2029.81 L699.44 2029.69 L710.94 2029.69 L722.45 2029.56 L733.96 2029.44 L745.47 2029.32 L756.98 2029.19 L768.49 2028.94 L780.00 2028.82 L791.51 2028.57 L803.01 2028.45 L814.52 2028.08 L826.03 2027.83 L837.54 2027.58 L849.05 2027.21 L860.56 2026.84 L872.07 2026.35 L883.58 2025.85 L895.08 2025.36 L906.59 2024.74 L918.10 2024.12 L929.61 2023.38 L941.12 2022.51 L952.63 2021.64 L964.14 2020.65 L975.65 2019.66 L987.15 2018.43 L998.66 2017.06 L1010.17 2015.70 L1021.68 2014.09 L1033.19 2012.49 L1044.70 2010.63 L1056.21 2008.53 L1067.71 2006.30 L1079.22 2003.95 L1090.73 2001.22 L1102.24 1998.38 L1113.75 1995.28 L1125.26 1991.94 L1136.77 1988.35 L1148.28 1984.39 L1159.79 1980.19 L1171.29 1975.61 L1182.80 1970.66 L1194.31 1965.34 L1205.82 1959.64 L1217.33 1953.58 L1228.84 1947.02 L1240.35 1939.97 L1251.86 1932.54 L1263.36 1924.50 L1274.87 1915.96 L1286.38 1906.92 L1297.89 1897.27 L1309.40 1887.00 L1320.91 1876.11 L1332.42 1864.60 L1343.93 1852.35 L1355.43 1839.48 L1366.94 1825.86 L1378.45 1811.63 L1389.96 1796.53 L1401.47 1780.69 L1412.98 1763.99 L1424.49 1746.66 L1436.00 1728.35 L1447.50 1709.29 L1459.01 1689.49 L1470.52 1668.70 L1482.03 1647.16 L1493.54 1624.76 L1505.17 1601.62 L1516.68 1577.49 L1528.19 1552.62 L1539.70 1527.00 L1551.21 1500.39 L1562.72 1473.17 L1574.22 1445.20 L1585.73 1416.36 L1597.24 1386.91 L1608.75 1356.84 L1620.26 1326.02 L1631.77 1294.71 L1643.28 1262.78 L1654.79 1230.36 L1666.29 1197.57 L1677.80 1164.28 L1689.31 1130.74 L1700.82 1096.95 L1712.33 1062.92 L1723.84 1028.77 L1735.35 994.61 L1746.86 960.45 L1758.36 926.42 L1769.87 892.51 L1781.38 858.98 L1792.89 825.69 L1804.40 792.89 L1815.91 760.59 L1827.42 729.03 L1838.93 697.97 L1850.43 667.78 L1861.94 638.57 L1873.45 610.11 L1884.96 582.88 L1896.47 556.64 L1907.98 531.65 L1919.49 508.01 L1931.00 485.61 L1942.50 464.70 L1954.01 445.27 L1965.52 427.45 L1977.03 411.23 L1988.54 396.63 L2000.05 383.76 L2011.56 372.62 L2023.07 363.34 L2034.57 355.79 L2046.08 350.10 L2057.59 346.39 L2069.10 344.53 L2080.61 344.53 L2092.12 346.39 L2103.63 350.10 L2115.14 355.79 L2126.64 363.34 L2138.15 372.62 L2149.66 383.76 L2161.17 396.63 L2172.68 411.23 L2184.19 427.45 L2195.70 445.27 L2207.21 464.70 L2218.71 485.61 L2230.22 508.01 L2241.73 531.65 L2253.24 556.64 L2264.75 582.88 L2276.26 610.11 L2287.77 638.57 L2299.28 667.78 L2310.78 697.97 L2322.29 729.03 L2333.80 760.59 L2345.31 792.89 L2356.82 825.69 L2368.33 858.98 L2379.84 892.51 L2391.34 926.42 L2402.85 960.45 L2414.36 994.61 L2426.00 1028.77 L2437.50 1062.92 L2449.01 1096.95 L2460.52 1130.74 L2472.03 1164.28 L2483.54 1197.57 L2495.05 1230.36 L2506.56 1262.78 L2518.07 1294.71 L2529.57 1326.02 L2541.08 1356.84 L2552.59 1386.91 L2564.10 1416.36 L2575.61 1445.20 L2587.12 1473.17 L2598.63 1500.39 L2610.14 1527.00 L2621.64 1552.62 L2633.15 1577.49 L2644.66 1601.62 L2656.17 1624.76 L2667.68 1647.16 L2679.19 1668.70 L2690.70 1689.49 L2702.21 1709.29 L2713.71 1728.35 L2725.22 1746.66 L2736.73 1763.99 L2748.24 1780.69 L2759.75 1796.53 L2771.26 1811.63 L2782.77 1825.86 L2794.28 1839.48 L2805.78 1852.35 L2817.29 1864.60 L2828.80 1876.11 L2840.31 1887.00 L2851.82 1897.27 L2863.33 1906.92 L2874.84 1915.96 L2886.35 1924.50 L2897.85 1932.54 L2909.36 1939.97 L2920.87 1947.02 L2932.38 1953.58 L2943.89 1959.64 L2955.40 1965.34 L2966.91 1970.66 L2978.42 1975.61 L2989.92 1980.19 L3001.43 1984.39 L3012.94 1988.35 L3024.45 1991.94 L3035.96 1995.28 L3047.47 1998.38 L3058.98 2001.22 L3070.49 2003.95 L3081.99 2006.30 L3093.50 2008.53 L3105.01 2010.63 L3116.52 2012.49 L3128.03 2014.09 L3139.54 2015.70 L3151.05 2017.06 L3162.56 2018.43 L3174.06 2019.66 L3185.57 2020.65 L3197.08 2021.64 L3208.59 2022.51 L3220.10 2023.38 L3231.61 2024.12 L3243.12 2024.74 L3254.63 2025.36 L3266.13 2025.85 L3277.64 2026.35 L3289.15 2026.84 L3300.66 2027.21 L3312.17 2027.58 L3323.68 2027.83 L3335.19 2028.08 L3346.82 2028.45 L3358.33 2028.57 L3369.84 2028.82 L3381.35 2028.94 L3392.85 2029.19 L3404.36 2029.32 L3415.87 2029.44 L3427.38 2029.56 L3438.89 2029.69 L3450.40 2029.69 L3461.91 2029.81 L3473.42 2029.93 L3484.92 2029.93 L3496.43 2030.06 L3507.94 2030.06 L3519.45 2030.06 L3530.96 2030.18 L3542.47 2030.18 L3553.98 2030.18 L3565.49 2030.18 L3576.99 2030.31 L3588.50 2030.31 L3600.01 2030.31 L3611.52 2030.31 L3623.03 2030.31 L3634.54 2030.31 L3646.05 2030.31 L3657.56 2030.31 L3669.06 2030.31 L3680.57 2030.31 L3692.08 2030.31 L3703.59 2030.31 L3715.10 2030.31 L3726.61 2030.43 L3738.12 2030.43 L3749.63 2030.43 L3761.13 2030.43 L3772.64 2030.43 L3784.15 2030.43 L3795.66 2030.43" stroke-linejoin="round" style="fill:none;stroke:#1A476F;stroke-width:8.64"/>
	<line x1="290.81" y1="2093.67" x2="290.81" y2="275.35" style="stroke:#000000;stroke-width:5.76"/>
	<line x1="290.81" y1="2030.31" x2="250.84" y2="2030.31" style="stroke:#000000;stroke-width:5.76"/>
	<text x="200.73" y="2030.31" style="font-family:'Helvetica';font-size:99.99px;fill:#000000" transform="rotate(-90 200.73,2030.31)" text-anchor="middle">0</text>
	<line x1="290.81" y1="1607.44" x2="250.84" y2="1607.44" style="stroke:#000000;stroke-width:5.76"/>
	<text x="200.73" y="1607.44" style="font-family:'Helvetica';font-size:99.99px;fill:#000000" transform="rotate(-90 200.73,1607.44)" text-anchor="middle">.1</text>
	<line x1="290.81" y1="1184.57" x2="250.84" y2="1184.57" style="stroke:#000000;stroke-width:5.76"/>
	<text x="200.73" y="1184.57" style="font-family:'Helvetica';font-size:99.99px;fill:#000000" transform="rotate(-90 200.73,1184.57)" text-anchor="middle">.2</text>
	<line x1="290.81" y1="761.58" x2="250.84" y2="761.58" style="stroke:#000000;stroke-width:5.76"/>
	<text x="200.73" y="761.58" style="font-family:'Helvetica';font-size:99.99px;fill:#000000" transform="rotate(-90 200.73,761.58)" text-anchor="middle">.3</text>
	<line x1="290.81" y1="338.71" x2="250.84" y2="338.71" style="stroke:#000000;stroke-width:5.76"/>
	<text x="200.73" y="338.71" style="font-family:'Helvetica';font-size:99.99px;fill:#000000" transform="rotate(-90 200.73,338.71)" text-anchor="middle">.4</text>
	<line x1="290.81" y1="2093.67" x2="3859.02" y2="2093.67" style="stroke:#000000;stroke-width:5.76"/>
	<line x1="354.17" y1="2093.67" x2="354.17" y2="2133.64" style="stroke:#000000;stroke-width:5.76"/>
	<text x="354.17" y="2223.62" style="font-family:'Helvetica';font-size:99.99px;fill:#000000" text-anchor="middle">-5</text>
	<line x1="2074.92" y1="2093.67" x2="2074.92" y2="2133.64" style="stroke:#000000;stroke-width:5.76"/>
	<text x="2074.92" y="2223.62" style="font-family:'Helvetica';font-size:99.99px;fill:#000000" text-anchor="middle">0</text>
	<line x1="3795.66" y1="2093.67" x2="3795.66" y2="2133.64" style="stroke:#000000;stroke-width:5.76"/>
	<text x="3795.66" y="2223.62" style="font-family:'Helvetica';font-size:99.99px;fill:#000000" text-anchor="middle">5</text>
	<text x="2074.92" y="2333.64" style="font-family:'Helvetica';font-size:99.99px;fill:#000000" text-anchor="middle">t</text>
	<rect x="477.06" y="2418.27" width="3195.72" height="326.34" style="fill:#FFFFFF"/>
	<rect x="479.94" y="2421.15" width="3189.96" height="320.58" style="fill:none;stroke:#000000;stroke-width:5.76"/>
	<line x1="520.25" y1="2511.46" x2="894.71" y2="2511.46" style="stroke:#006000;stroke-width:8.64"/>
	<line x1="2127.39" y1="2511.46" x2="2501.73" y2="2511.46" style="stroke:#FF4500;stroke-width:8.64"/>
	<line x1="520.25" y1="2651.43" x2="894.71" y2="2651.43" style="stroke:#1A476F;stroke-width:8.64"/>
	<text x="954.61" y="2546.49" style="font-family:'Helvetica';font-size:99.99px;fill:#000000">Homoskedastic Errors</text>
	<text x="2561.75" y="2546.49" style="font-family:'Helvetica';font-size:99.99px;fill:#000000">Heteroskedastic Errors</text>
	<text x="954.61" y="2686.46" style="font-family:'Helvetica';font-size:99.99px;fill:#000000">Actual t-dist</text>
	<text x="2074.92" y="215.98" style="font-family:'Helvetica';font-size:139.96px;fill:#000000" text-anchor="middle">t-distribution when Null Hypothesis is True</text>
</svg>
